<svg xmlns="http://www.w3.org/2000/svg" width="720" height="560" viewBox="0 0 720 560" role="img" aria-labelledby="title desc">
  <title id="title">Gold reserve proof dashboard</title>
  <desc id="desc">Gold bars, a reserve ledger, and proof hash blocks for a teaching dashboard.</desc>
  <rect width="720" height="560" fill="#f1f5f0"/>
  <rect x="70" y="70" width="580" height="410" rx="18" fill="#ffffff" stroke="#dfe5dc"/>
  <rect x="106" y="112" width="228" height="132" rx="12" fill="#21322b"/>
  <rect x="128" y="142" width="75" height="34" rx="5" fill="#f5d878"/>
  <rect x="212" y="142" width="75" height="34" rx="5" fill="#c89632"/>
  <rect x="169" y="184" width="75" height="34" rx="5" fill="#dfb54e"/>
  <rect x="252" y="184" width="75" height="34" rx="5" fill="#b27a23"/>
  <path d="M386 116h198v18H386z" fill="#18211b"/>
  <path d="M386 158h152v12H386z" fill="#627064"/>
  <path d="M386 184h184v12H386z" fill="#627064"/>
  <path d="M386 210h128v12H386z" fill="#627064"/>
  <rect x="108" y="286" width="504" height="24" rx="12" fill="#dfe5dc"/>
  <rect x="108" y="286" width="420" height="24" rx="12" fill="#c69635"/>
  <rect x="108" y="336" width="504" height="24" rx="12" fill="#dfe5dc"/>
  <rect x="108" y="336" width="338" height="24" rx="12" fill="#315f84"/>
  <rect x="108" y="396" width="114" height="42" rx="8" fill="#e7f4eb" stroke="#9ed0ae"/>
  <rect x="240" y="396" width="114" height="42" rx="8" fill="#fff7df" stroke="#e0c16c"/>
  <rect x="372" y="396" width="114" height="42" rx="8" fill="#eef4f8" stroke="#a7c2d5"/>
  <rect x="504" y="396" width="108" height="42" rx="8" fill="#fff2ed" stroke="#efc4ba"/>
  <circle cx="202" cy="303" r="7" fill="#18211b"/>
  <circle cx="362" cy="303" r="7" fill="#18211b"/>
  <circle cx="504" cy="303" r="7" fill="#18211b"/>
  <path d="M139 414h52M271 414h52M403 414h52M535 414h42" stroke="#18211b" stroke-width="8" stroke-linecap="round"/>
  <path d="M112 266h96M112 322h86" stroke="#627064" stroke-width="10" stroke-linecap="round"/>
  <path d="M386 250l40 28 72-82" fill="none" stroke="#32785a" stroke-width="14" stroke-linecap="round" stroke-linejoin="round"/>
</svg>
